<?xml version="1.0" encoding="utf-8"?>
<!-- Generator: Adobe Illustrator 16.0.4, SVG Export Plug-In . SVG Version: 6.00 Build 0)  -->
<!DOCTYPE svg PUBLIC "-//W3C//DTD SVG 1.1//EN" "http://www.w3.org/Graphics/SVG/1.1/DTD/svg11.dtd">
<svg version="1.1" id="Capa_1" xmlns="http://www.w3.org/2000/svg" xmlns:xlink="http://www.w3.org/1999/xlink" x="0px" y="0px"
	 width="512px" height="512px" viewBox="0 0 512 512" enable-background="new 0 0 512 512" xml:space="preserve">
<g>
	<g>
		<path fill="#FFFFFF" d="M0,256C0,114.84,114.84,0,256,0s256,114.84,256,256S397.16,512,256,512S0,397.16,0,256z M494.639,256
			c0-131.577-107.051-238.639-238.639-238.639C124.424,17.361,17.361,124.423,17.361,256c0,131.6,107.062,238.639,238.639,238.639
			C387.588,494.639,494.639,387.6,494.639,256z"/>
		<path fill="#FFFFFF" d="M166.114,223.858c0-2.223,0.845-4.445,2.546-6.135c3.38-3.391,8.89-3.391,12.28,0l78.752,78.659
			l78.739-78.659c3.392-3.379,8.9-3.379,12.281,0c3.391,3.392,3.391,8.889,0,12.281l-84.875,84.781
			c-3.391,3.393-8.889,3.393-12.28,0l-84.874-84.781C166.959,228.303,166.114,226.081,166.114,223.858z"/>
	</g>
</g>
</svg>
